<svg version="1.1" id="Layer_1" xmlns="http://www.w3.org/2000/svg" x="0" y="0" viewBox="0 0 430.2 129" xml:space="preserve"><style type="text/css">.st0{fill:#fff}</style><path class="st0" d="M192.9 66.5c2.9-.1 5.8 1 7.9 3 2.1 1.9 3.2 4.7 3.2 7.5.1 2.8-1.1 5.6-3.2 7.5-2.2 2-5.1 3.1-8 3-2.9.1-5.6-1-7.7-3-2-1.9-3.2-4.6-3.1-7.4-.1-2.9 1-5.6 3.1-7.6s4.9-3.1 7.8-3zm.1 2.8c-2.1-.1-4.2.7-5.8 2.2-1.5 1.5-2.3 3.5-2.3 5.6-.1 2.1.8 4.1 2.3 5.5 3.2 2.9 8.2 2.9 11.4 0 1.5-1.5 2.3-3.5 2.3-5.6s-.8-4.1-2.3-5.5c-1.4-1.5-3.5-2.3-5.6-2.2zm23.4 18V66.8h6.5c1.7-.1 3.4.5 4.7 1.6 1.2 1.1 1.8 2.6 1.7 4.3 0 1.1-.3 2.2-.9 3.2-.6.9-1.4 1.6-2.4 2-1.4.5-2.9.7-4.5.6h-2.2v8.9l-2.9-.1zm6-17.9h-3v6.4h3.2c1 .1 2-.2 2.8-.8.7-.6 1-1.5 1-2.4-.1-2.2-1.4-3.2-4-3.2zm16.8-2.6h17.1v2.6h-7.1v17.9h-2.9V69.4h-7l-.1-2.6zm28.9 0h2.9v20.5h-2.9V66.8zm34.1 15.7v3.2c-2.3 1.2-4.9 1.8-7.4 1.8-2 .1-4-.4-5.8-1.4-1.6-.9-2.9-2.2-3.8-3.8-.9-1.6-1.4-3.4-1.4-5.2-.1-2.8 1.1-5.6 3.2-7.5 2.1-2 4.9-3.1 7.9-3 2.5.1 4.9.6 7.2 1.7v3.2c-2.1-1.3-4.5-2-7-2.1-2.2-.1-4.3.7-5.8 2.2-3.1 3-3.1 8-.1 11.1 1.6 1.5 3.7 2.3 5.8 2.2 2.5-.1 5.1-.9 7.2-2.4zm19.9-15.8h2.1l9.2 20.6h-3l-2.7-6.1H319l-2.6 6.1h-3l8.7-20.6zm4.3 11.9l-3.3-7.4-3.1 7.4h6.4zm18.2-11.8h2.9v17.8h9.2v2.7h-12.2V66.8h.1z"/><path d="M384.7 81.6l2.5-.3c.2 1.1.7 2.2 1.5 3 .7.6 1.6 1 2.5.9 1.1 0 2.2-.4 3-1.2.8-.8 1.2-1.9 1.2-3s-.4-2.1-1.1-2.8c-.8-.7-1.8-1.1-2.8-1.1-.6 0-1.2.1-1.8.3l.3-2.2h.4c1 0 2-.3 2.9-.8.9-.6 1.3-1.5 1.3-2.6 0-.9-.3-1.7-.9-2.3-.6-.6-1.5-.9-2.4-.9s-1.8.3-2.4.9c-.7.7-1.2 1.7-1.2 2.7l-2.5-.4c.2-1.5.9-2.9 2.1-3.9 1.1-.9 2.6-1.4 4-1.4 1.1 0 2.1.2 3.1.7.9.4 1.6 1.1 2.1 1.9s.7 1.7.7 2.6c0 .8-.2 1.7-.7 2.4-.5.8-1.2 1.4-2.1 1.7 1.1.2 2.1.8 2.8 1.7.7.9 1 2.1 1 3.3 0 1.7-.7 3.3-1.9 4.5-1.3 1.2-3.1 1.9-4.9 1.8-1.6.1-3.2-.5-4.4-1.6-1.5-.8-2.2-2.3-2.3-3.9z" fill="#0090a8"/><path class="st0" d="M411.4 87.3V66.8h6.9c2.3-.1 4.5.3 6.6 1.3 1.6.8 3 2.1 3.9 3.7 1 1.6 1.5 3.4 1.4 5.3 0 4.2-2.6 8-6.5 9.4-.7.3-1.4.5-2.1.6-1.2.1-2.5.2-3.7.2h-6.5zm6.6-17.9h-3.7v15.2h3.7c1.1 0 2.3-.1 3.4-.3.7-.2 1.4-.4 2-.8.5-.3 1-.7 1.5-1.1 1.5-1.5 2.2-3.5 2.2-5.6.1-2-.7-4-2.2-5.4-.6-.5-1.2-1-1.9-1.3-.6-.3-1.3-.5-2-.7h-3zm-249.5-5.5c-.8.3-1.5.7-2.3.9-4.1 1-8.3 1.9-12.4 2.9-1.6.4-3.2 1-4.7 1.7-1.2.6-1.3 1.2-.2 2 1.1.9 2.4 1.5 3.6 2.4 2 1.4 4 2.9 6 4.4.5.4.8 1 1.5 1.8-1.1.2-1.9.3-2.6.4-3.8.3-7.5.5-11.3.8-.9.1-1.8.7-2.7 1.1.5.8.8 1.7 1.4 2.4 2.4 2.7 4.3 5.7 5.4 9.2.7 2.6.2 3-2.4 2.7-4.7-.5-9.5-.8-14.3-1.2h-1c-2.5.1-2.9.6-1.7 2.9 2 4 3.1 8.1 2.8 12.6-.1.9-.2 1.8-.4 2.7-.3 1.3-.8 1.5-1.9.6-.5-.4-.9-.9-1.4-1.3-4.9-4.3-10.4-7.5-16.9-8.7-1.3-.2-2.7-.3-4-.2-3 .1-5.2 1.7-5.6 4.7-.4 2.6-.4 5.2-.6 7.9-.2 2.7-.5 5.4-.9 8.1-.1.7-.7 1.4-1.2 2.5-.8-1.2-1.4-2-1.9-2.9-2.9-5.3-6.6-9.9-12.1-12.6-3.6-1.8-7.4-3.2-11.1-4.7-2.2-.9-4.4-1.6-6.7-2.4 0-.2 0-.3.1-.5h1.9c4.9-.1 9.8.3 14.6-.2 11.9-1.5 19.1-8.5 22.5-19.8.3-1.1.6-2.3.9-3.5v-.9c-5.9 11.8-15 17.1-27.8 15.6-6.9-.8-14.6-6.1-17-11.7.6.4 1.2.8 1.7 1.2 7.2 5.6 16.5 5.5 23.4-.3 5.2-4.4 7.4-12 5.3-18.6-2-6.6-7.6-10.9-14.7-11.7-6.6-.7-12.3 1.5-17.9 4.7-8.1 4.3-14.5 10.6-19.6 18.1-.5.7-.9 1.5-1.3 2.2-1 2.1-.6 3.1 1.5 3.9 1.9.7 3.9 1.1 5.8 1.7.9.3 1.7.7 2.6 1.1 0 .2 0 .3.1.5-.6.4-1.2.9-1.8 1.1-4.6 1.8-8.1 4.9-11 8.8-3.8 5.2-9.4 7.5-15.4 9.1-2.3.6-4.7.9-7.1 1.4 0-.2-.1-.3-.1-.5.8-.5 1.6-1 2.4-1.4 3.1-1.8 5.9-4.1 8.1-7 1.4-1.9 2.4-4 2.4-6.5 0-1.8-.7-2.9-2.4-3.2-1.9-.3-3.8-.1-5.7-.2h-2.9c-.1-.2-.3-.5-.4-.7.6-.4 1.2-.7 1.8-1.2 2-1.6 4.1-3.2 6.1-4.8 1.4-1.1 1.3-1.8-.5-2.2-2.1-.5-4.2-.7-6.3-1.1-1.1-.2-2.3-.3-3.8-.5.7-.8 1-1.2 1.4-1.6 5.4-4.6 10.8-9.2 16.1-13.8 10.2-8.8 22-14.5 34.8-18.5 15.3-4.8 30.8-4.6 46.4-1.4 12.3 2.5 23.8 7.5 35.1 12.7 6.1 2.8 12.2 5.8 18.7 7.6.6.2 1.2.5 1.8.8-.2.3-.2.5-.2.6z"/><path class="st0" d="M28.6 50.8c.4-.6.8-1.3 1.3-1.9C39.8 37.1 52.4 28.7 66.1 22c13.4-6.5 27.4-11.2 42.1-13.3 9.4-1.4 19-2.1 28.5-2.8 24.1-1.7 48.3-1.6 72.4-1.5 2.1 0 4.2.2 6.3.4 1.6.2 1.8.8.8 2.1l-.1.1c-5.6 4.9-10.9 10-16.8 14.5-5.1 4-11.5 5.2-17.9 6.1-7.7 1.1-15.4.9-23.1.4-16.8-.9-33.5-1.9-50.3-1.6-19.6.6-38.1 5.5-55.8 13.8-7.9 3.7-15.6 7.8-22.4 13.3-1 .8-2 1.7-3.1 2.5-.4.3-1 .3-1.8.6.7-2.4 2.5-4.3 3.7-5.8"/></svg>